# xmcd
#
# Track frame offsets:
#	150
#	15384
#	26151
#	37297
#	52093
#	66545
#	85244
#	101844
#	116606
#	133021
#	148241
#	160034
#
# Disc length: 2366 seconds
#
# Revision: 1
# Processed by: cddbd v1.5.1PL2 Copyright (c) Steve Scherf et al.
# Submitted via: audiograbber 1.83.01
#
DISCID=b2093c0c
DTITLE=Sandra Mooij - Demo - Sandra Mooij
DYEAR=1900
DGENRE=Country
TTITLE0=Independence Day
TTITLE1=Hurt
TTITLE2=It's A Little To Late
TTITLE3=You Call Everybody Darling
TTITLE4=Every Little Thing
TTITLE5=Autumn Leaves
TTITLE6=Pearl's A Singer
TTITLE7=He Will Be Mine
TTITLE8=Wild Angels
TTITLE9=In Anothers Eyes
TTITLE10=That's What I LikeAbout You
TTITLE11=God Bless The Child
EXTD=
EXTT0=
EXTT1=
EXTT2=
EXTT3=
EXTT4=
EXTT5=
EXTT6=
EXTT7=
EXTT8=
EXTT9=
EXTT10=
EXTT11=
PLAYORDER=
